<svg width="33" height="32" viewBox="0 0 33 32" fill="none" xmlns="http://www.w3.org/2000/svg">
<g opacity="0.9">
<g clip-path="url(#clip0_1298_42103)">
<rect x="0.26001" width="32" height="32" rx="8" fill="white"/>
<g filter="url(#filter0_n_1298_42103)">
<path d="M4.25977 0.333008H28.2598C31.0211 0.333008 33.2596 2.57173 33.2598 5.33301V26.667C33.2596 29.4283 31.0211 31.667 28.2598 31.667H4.25977C1.4986 31.6668 -0.740059 29.4282 -0.740234 26.667V5.33301C-0.740058 2.57184 1.4986 0.333184 4.25977 0.333008Z" stroke="url(#paint0_linear_1298_42103)" stroke-width="0.666667"/>
</g>
<g filter="url(#filter1_n_1298_42103)">
<path d="M11.4851 14.3634L12.24 13.3233L18.1773 17.6304L17.4224 18.6705L11.4851 14.3634ZM15.2971 14.3632L16.052 13.3231L21.9893 17.6302L21.2344 18.6703L15.2971 14.3632ZM16.7386 7.99957C13.6057 7.99973 11.0459 9.90741 10.9448 12.2811L10.9417 12.4766L12.2308 12.4766L12.2308 12.4269C12.2307 10.6947 14.2563 9.28455 16.7424 9.28442C19.2284 9.28429 21.2542 10.6942 21.2543 12.4264L21.2543 12.4761L22.5433 12.476L22.5433 12.4263C22.5359 9.98545 19.9355 7.99939 16.7386 7.99957ZM21.2418 19.5723C21.2419 21.3044 19.2163 22.7146 16.7283 22.7147C14.2405 22.7148 12.2165 21.3049 12.2164 19.5728L12.2164 19.523L10.9274 19.5231L10.9274 19.5728C10.9275 22.0137 13.5278 23.9997 16.7247 23.9996C19.8577 23.9994 22.4175 22.0917 22.5185 19.7181L22.5216 19.5225L21.2325 19.5225L21.2418 19.5723Z" fill="url(#paint1_linear_1298_42103)"/>
</g>
</g>
<rect x="0.76001" y="0.5" width="31" height="31" rx="7.5" stroke="url(#paint2_linear_1298_42103)"/>
</g>
<defs>
<filter id="filter0_n_1298_42103" x="-1.07324" y="0" width="34.6666" height="32" filterUnits="userSpaceOnUse" color-interpolation-filters="sRGB">
<feFlood flood-opacity="0" result="BackgroundImageFix"/>
<feBlend mode="normal" in="SourceGraphic" in2="BackgroundImageFix" result="shape"/>
<feTurbulence type="fractalNoise" baseFrequency="9.3055944442749023 9.3055944442749023" stitchTiles="stitch" numOctaves="3" result="noise" seed="636" />
<feColorMatrix in="noise" type="luminanceToAlpha" result="alphaNoise" />
<feComponentTransfer in="alphaNoise" result="coloredNoise1">
<feFuncA type="discrete" tableValues="1 1 1 1 1 1 1 1 1 1 1 1 1 1 1 1 1 1 1 1 1 1 1 1 1 1 1 1 1 1 1 1 1 1 1 1 1 1 1 1 1 1 1 1 1 1 1 1 1 1 1 0 0 0 0 0 0 0 0 0 0 0 0 0 0 0 0 0 0 0 0 0 0 0 0 0 0 0 0 0 0 0 0 0 0 0 0 0 0 0 0 0 0 0 0 0 0 0 0 0 "/>
</feComponentTransfer>
<feComposite operator="in" in2="shape" in="coloredNoise1" result="noise1Clipped" />
<feFlood flood-color="rgba(255, 255, 255, 0.3)" result="color1Flood" />
<feComposite operator="in" in2="noise1Clipped" in="color1Flood" result="color1" />
<feMerge result="effect1_noise_1298_42103">
<feMergeNode in="shape" />
<feMergeNode in="color1" />
</feMerge>
</filter>
<filter id="filter1_n_1298_42103" x="10.9274" y="7.99957" width="11.616" height="16" filterUnits="userSpaceOnUse" color-interpolation-filters="sRGB">
<feFlood flood-opacity="0" result="BackgroundImageFix"/>
<feBlend mode="normal" in="SourceGraphic" in2="BackgroundImageFix" result="shape"/>
<feTurbulence type="fractalNoise" baseFrequency="12.407459259033203 12.407459259033203" stitchTiles="stitch" numOctaves="3" result="noise" seed="636" />
<feColorMatrix in="noise" type="luminanceToAlpha" result="alphaNoise" />
<feComponentTransfer in="alphaNoise" result="coloredNoise1">
<feFuncA type="discrete" tableValues="1 1 1 1 1 1 1 1 1 1 1 1 1 1 1 1 1 1 1 1 1 1 1 1 1 1 1 1 1 1 1 1 1 1 1 1 1 1 1 1 1 1 1 1 1 1 1 1 1 1 1 0 0 0 0 0 0 0 0 0 0 0 0 0 0 0 0 0 0 0 0 0 0 0 0 0 0 0 0 0 0 0 0 0 0 0 0 0 0 0 0 0 0 0 0 0 0 0 0 0 "/>
</feComponentTransfer>
<feComposite operator="in" in2="shape" in="coloredNoise1" result="noise1Clipped" />
<feFlood flood-color="rgba(255, 255, 255, 0.3)" result="color1Flood" />
<feComposite operator="in" in2="noise1Clipped" in="color1Flood" result="color1" />
<feMerge result="effect1_noise_1298_42103">
<feMergeNode in="shape" />
<feMergeNode in="color1" />
</feMerge>
</filter>
<linearGradient id="paint0_linear_1298_42103" x1="2.71055" y1="0.182173" x2="22.2659" y2="24.6803" gradientUnits="userSpaceOnUse">
<stop stop-color="#56C654" stop-opacity="0.6"/>
<stop offset="1" stop-color="#444599" stop-opacity="0.3"/>
</linearGradient>
<linearGradient id="paint1_linear_1298_42103" x1="13.7446" y1="7.8911" x2="22.2783" y2="20.1372" gradientUnits="userSpaceOnUse">
<stop stop-color="#95EE95"/>
<stop offset="1" stop-color="#87A1E1"/>
</linearGradient>
<linearGradient id="paint2_linear_1298_42103" x1="3.75274" y1="0.182173" x2="23.5969" y2="23.1298" gradientUnits="userSpaceOnUse">
<stop stop-color="#56C654" stop-opacity="0.6"/>
<stop offset="1" stop-color="#444599" stop-opacity="0.3"/>
</linearGradient>
<clipPath id="clip0_1298_42103">
<rect x="0.26001" width="32" height="32" rx="8" fill="white"/>
</clipPath>
</defs>
</svg>
