<svg width="33" height="32" viewBox="0 0 33 32" fill="none" xmlns="http://www.w3.org/2000/svg">
<rect x="0.76001" y="0.5" width="31" height="31" rx="7.5" fill="#111113"/>
<rect x="0.76001" y="0.5" width="31" height="31" rx="7.5" stroke="url(#paint0_linear_1306_45649)"/>
<g filter="url(#filter0_n_1306_45649)">
<path d="M11.485 14.3635L12.2399 13.3234L18.1772 17.6305L17.4223 18.6706L11.485 14.3635ZM15.2969 14.3633L16.0519 13.3232L21.9892 17.6303L21.2342 18.6704L15.2969 14.3633ZM16.7385 7.99969C13.6055 7.99986 11.0457 9.90753 10.9447 12.2812L10.9416 12.4767L12.2307 12.4767L12.2307 12.427C12.2306 10.6948 14.2562 9.28468 16.7422 9.28454C19.2283 9.28441 21.2541 10.6943 21.2542 12.4265L21.2542 12.4762L22.5432 12.4761L22.5432 12.4265C22.5358 9.98557 19.9354 7.99952 16.7385 7.99969ZM21.2417 19.5724C21.2418 21.3045 19.2161 22.7147 16.7282 22.7148C14.2404 22.7149 12.2164 21.305 12.2163 19.5729L12.2163 19.5231L10.9273 19.5232L10.9273 19.5729C10.9274 22.0138 13.5277 23.9999 16.7246 23.9997C19.8575 23.9995 22.4174 22.0918 22.5184 19.7182L22.5215 19.5226L21.2324 19.5227L21.2417 19.5724Z" fill="url(#paint1_linear_1306_45649)"/>
</g>
<defs>
<filter id="filter0_n_1306_45649" x="10.9272" y="7.99963" width="11.616" height="16" filterUnits="userSpaceOnUse" color-interpolation-filters="sRGB">
<feFlood flood-opacity="0" result="BackgroundImageFix"/>
<feBlend mode="normal" in="SourceGraphic" in2="BackgroundImageFix" result="shape"/>
<feTurbulence type="fractalNoise" baseFrequency="10.9375 10.9375" stitchTiles="stitch" numOctaves="3" result="noise" seed="636" />
<feColorMatrix in="noise" type="luminanceToAlpha" result="alphaNoise" />
<feComponentTransfer in="alphaNoise" result="coloredNoise1">
<feFuncA type="discrete" tableValues="1 1 1 1 1 1 1 1 1 1 1 1 1 1 1 1 1 1 1 1 1 1 1 1 1 1 1 1 1 1 1 1 1 1 1 1 1 1 1 1 1 1 1 1 1 1 1 1 1 1 1 0 0 0 0 0 0 0 0 0 0 0 0 0 0 0 0 0 0 0 0 0 0 0 0 0 0 0 0 0 0 0 0 0 0 0 0 0 0 0 0 0 0 0 0 0 0 0 0 0 "/>
</feComponentTransfer>
<feComposite operator="in" in2="shape" in="coloredNoise1" result="noise1Clipped" />
<feFlood flood-color="rgba(255, 255, 255, 0.3)" result="color1Flood" />
<feComposite operator="in" in2="noise1Clipped" in="color1Flood" result="color1" />
<feMerge result="effect1_noise_1306_45649">
<feMergeNode in="shape" />
<feMergeNode in="color1" />
</feMerge>
</filter>
<linearGradient id="paint0_linear_1306_45649" x1="4.54572" y1="-5.16903e-07" x2="30.5457" y2="33.4286" gradientUnits="userSpaceOnUse">
<stop stop-color="#5F606A"/>
<stop offset="1" stop-color="#303136"/>
</linearGradient>
<linearGradient id="paint1_linear_1306_45649" x1="11.6077" y1="-8.3259" x2="38.3692" y2="13.6191" gradientUnits="userSpaceOnUse">
<stop stop-color="#95EE95"/>
<stop offset="1" stop-color="#87A1E1"/>
</linearGradient>
</defs>
</svg>
