<svg width="33" height="32" viewBox="0 0 33 32" fill="none" xmlns="http://www.w3.org/2000/svg">
<g clip-path="url(#clip0_1298_42113)">
<rect x="0.26001" width="32" height="32" rx="8" fill="white"/>
<g filter="url(#filter0_n_1298_42113)">
<path d="M4.25977 0.333008H28.2598C31.0211 0.333008 33.2596 2.57173 33.2598 5.33301V26.667C33.2596 29.4283 31.0211 31.667 28.2598 31.667H4.25977C1.4986 31.6668 -0.740059 29.4282 -0.740234 26.667V5.33301C-0.740058 2.57184 1.4986 0.333184 4.25977 0.333008Z" stroke="url(#paint0_linear_1298_42113)" stroke-width="0.666667"/>
</g>
<g filter="url(#filter1_n_1298_42113)">
<path d="M11.3293 20.9604C11.8304 20.4402 12.3315 19.92 12.839 19.3933C11.8513 18.4089 10.8423 17.4034 9.84001 16.4046C10.8885 15.3588 11.8968 14.3532 12.9343 13.3183C12.3878 12.7572 11.8936 12.25 11.3994 11.7002C11.5529 11.4926 11.7066 11.3275 11.8739 11.1524C11.9148 11.1244 11.9422 11.1062 11.9695 11.0881C12.4577 11.6235 12.946 12.159 13.458 12.7206C14.4514 11.724 15.3447 10.8278 16.2448 9.92491C17.1549 10.8437 18.046 11.7432 18.9865 12.6926C19.5258 12.1321 20.0207 11.6179 20.5538 11.1053C20.7934 11.3122 20.9947 11.5176 21.1961 11.7229C20.7007 12.2479 20.2053 12.7729 19.7057 13.3024C20.6766 14.2697 21.6853 15.2747 22.709 16.2946C21.6544 17.3465 20.6408 18.3575 19.623 19.3728C20.1652 19.9256 20.6631 20.4333 21.175 20.9656C21.1677 21.0168 21.1465 21.0433 21.1036 21.0745C20.907 21.2502 20.7319 21.4213 20.5568 21.5924C20.0692 21.0588 19.5816 20.5253 19.0877 19.9849C18.1001 20.9759 17.2092 21.87 16.3113 22.771C15.3834 21.8334 14.4892 20.9298 13.5515 19.9823C12.9995 20.5535 12.5044 21.066 11.9705 21.5772C11.731 21.3707 11.5302 21.1656 11.3293 20.9604ZM14.7901 19.8309C15.2741 20.3207 15.7582 20.8105 16.1823 21.2397C17.8656 19.5598 19.5066 17.9222 21.1152 16.3169C19.5112 14.7139 17.8767 13.0804 16.2669 11.4715C14.6497 13.0884 13.0101 14.7277 11.3466 16.3909C12.4681 17.5112 13.6131 18.655 14.7901 19.8309Z" fill="url(#paint1_linear_1298_42113)"/>
<path d="M11.9781 11.0641C11.9422 11.1062 11.9149 11.1244 11.846 11.1501C11.0102 11.244 10.578 11.0588 10.3252 10.5313C10.1657 10.1985 10.2139 9.85258 10.2457 9.50651C10.5946 9.29523 11.2433 9.28896 11.5257 9.52993C11.9215 9.86764 12.217 10.2619 12.0391 10.834C12.018 10.9016 12.004 10.9714 11.9781 11.0641Z" fill="url(#paint2_linear_1298_42113)"/>
<path d="M21.1252 21.0699C21.1465 21.0433 21.1678 21.0168 21.1952 20.9743C21.7718 20.7874 22.2789 20.862 22.6581 21.3622C22.9539 21.7525 23.0275 22.1788 22.7666 22.6565C22.4749 22.6903 22.2102 22.7566 21.9723 22.7034C21.2529 22.5423 20.9459 21.9191 21.1252 21.0699Z" fill="url(#paint3_linear_1298_42113)"/>
<path d="M21.1272 9.48117C21.637 9.23533 22.1309 9.29668 22.5389 9.66148C22.958 10.0363 23.0141 10.5392 22.8021 11.0834C21.9259 11.5378 20.7748 10.6854 21.1165 9.6073C21.1289 9.56806 21.1241 9.52334 21.1272 9.48117Z" fill="url(#paint4_linear_1298_42113)"/>
<path d="M11.3026 20.9556C11.5302 21.1656 11.731 21.3707 11.9509 21.5862C12.1375 21.9532 12.1498 22.3078 11.9072 22.6711C11.8167 22.6859 11.7734 22.6845 11.7322 22.693C10.951 22.8534 10.3634 22.4732 10.2284 21.6913C10.1918 21.4795 10.2376 21.2534 10.2456 21.0339C10.5752 20.8352 10.9214 20.842 11.3026 20.9556Z" fill="url(#paint5_linear_1298_42113)"/>
<path d="M21.1053 9.48548C21.1241 9.52334 21.1289 9.56806 21.1165 9.6073C20.7748 10.6854 21.9259 11.5378 22.7799 11.0965C22.4679 11.7095 21.8698 11.9549 21.223 11.7275C20.9947 11.5176 20.7934 11.3122 20.5733 11.096C20.2405 10.5236 20.5149 9.83954 21.1053 9.48548Z" fill="url(#paint6_linear_1298_42113)"/>
<path d="M10.2245 21.0356C10.2376 21.2534 10.1918 21.4795 10.2284 21.6913C10.3634 22.4732 10.951 22.8534 11.7322 22.693C11.7734 22.6845 11.8167 22.6859 11.8864 22.6832C11.6786 23.2005 10.9904 23.4886 10.4472 23.2978C9.85887 23.0911 9.49346 22.4392 9.61736 21.8736C9.69841 21.5036 9.94145 21.2691 10.2245 21.0356Z" fill="url(#paint7_linear_1298_42113)"/>
<path d="M21.1036 21.0745C20.9459 21.9191 21.2529 22.5423 21.9723 22.7034C22.2102 22.7566 22.4749 22.6903 22.7535 22.6786C22.3952 23.3895 21.799 23.3979 21.3269 23.2854C20.7895 23.1573 20.4004 22.5973 20.4288 22.0491C20.4359 21.9113 20.501 21.7764 20.5481 21.6163C20.7319 21.4213 20.907 21.2502 21.1036 21.0745Z" fill="url(#paint8_linear_1298_42113)"/>
<path d="M10.2245 9.50796C10.2139 9.85258 10.1657 10.1985 10.3252 10.5313C10.578 11.0588 11.0102 11.244 11.8323 11.16C11.7066 11.3275 11.5529 11.4926 11.3947 11.6773C10.856 11.8751 10.3806 11.8502 9.94682 11.4142C9.49551 10.9605 9.4976 10.133 9.98653 9.6956C10.0575 9.63209 10.131 9.5714 10.2245 9.50796Z" fill="url(#paint9_linear_1298_42113)"/>
<path d="M15.7938 16.4811C15.713 16.1677 15.8607 15.9806 16.1124 15.9026C16.417 15.8081 16.6931 15.9545 16.7635 16.1981C16.8375 16.4539 16.7132 16.6779 16.4324 16.7951C16.1703 16.9044 15.9702 16.8111 15.7938 16.4811Z" fill="url(#paint10_linear_1298_42113)"/>
<path d="M19.7853 16.7944C19.4582 16.8778 19.2139 16.757 19.1153 16.4694C19.0257 16.2081 19.1779 16.0349 19.3725 15.9168C19.566 15.7994 19.9389 15.9103 20.0291 16.0784C20.1861 16.3708 20.1125 16.6095 19.7853 16.7944Z" fill="url(#paint11_linear_1298_42113)"/>
<path d="M12.8939 16.8304C12.5226 16.6966 12.4209 16.5433 12.4888 16.2052C12.5394 15.953 12.7207 15.8844 12.9605 15.8889C13.2154 15.8937 13.401 15.9859 13.4368 16.249C13.4727 16.5127 13.3957 16.7327 13.097 16.8031C13.0372 16.8172 12.9766 16.8282 12.8939 16.8304Z" fill="url(#paint12_linear_1298_42113)"/>
</g>
</g>
<rect x="0.76001" y="0.5" width="31" height="31" rx="7.5" stroke="url(#paint13_linear_1298_42113)"/>
<defs>
<filter id="filter0_n_1298_42113" x="-1.07324" y="0" width="34.6666" height="32" filterUnits="userSpaceOnUse" color-interpolation-filters="sRGB">
<feFlood flood-opacity="0" result="BackgroundImageFix"/>
<feBlend mode="normal" in="SourceGraphic" in2="BackgroundImageFix" result="shape"/>
<feTurbulence type="fractalNoise" baseFrequency="9.3055944442749023 9.3055944442749023" stitchTiles="stitch" numOctaves="3" result="noise" seed="636" />
<feColorMatrix in="noise" type="luminanceToAlpha" result="alphaNoise" />
<feComponentTransfer in="alphaNoise" result="coloredNoise1">
<feFuncA type="discrete" tableValues="1 1 1 1 1 1 1 1 1 1 1 1 1 1 1 1 1 1 1 1 1 1 1 1 1 1 1 1 1 1 1 1 1 1 1 1 1 1 1 1 1 1 1 1 1 1 1 1 1 1 1 0 0 0 0 0 0 0 0 0 0 0 0 0 0 0 0 0 0 0 0 0 0 0 0 0 0 0 0 0 0 0 0 0 0 0 0 0 0 0 0 0 0 0 0 0 0 0 0 0 "/>
</feComponentTransfer>
<feComposite operator="in" in2="shape" in="coloredNoise1" result="noise1Clipped" />
<feFlood flood-color="rgba(255, 255, 255, 0.3)" result="color1Flood" />
<feComposite operator="in" in2="noise1Clipped" in="color1Flood" result="color1" />
<feMerge result="effect1_noise_1298_42113">
<feMergeNode in="shape" />
<feMergeNode in="color1" />
</feMerge>
</filter>
<filter id="filter1_n_1298_42113" x="9.59326" y="9.33337" width="13.3334" height="14.0236" filterUnits="userSpaceOnUse" color-interpolation-filters="sRGB">
<feFlood flood-opacity="0" result="BackgroundImageFix"/>
<feBlend mode="normal" in="SourceGraphic" in2="BackgroundImageFix" result="shape"/>
<feTurbulence type="fractalNoise" baseFrequency="14.08927059173584 14.08927059173584" stitchTiles="stitch" numOctaves="3" result="noise" seed="636" />
<feColorMatrix in="noise" type="luminanceToAlpha" result="alphaNoise" />
<feComponentTransfer in="alphaNoise" result="coloredNoise1">
<feFuncA type="discrete" tableValues="1 1 1 1 1 1 1 1 1 1 1 1 1 1 1 1 1 1 1 1 1 1 1 1 1 1 1 1 1 1 1 1 1 1 1 1 1 1 1 1 1 1 1 1 1 1 1 1 1 1 1 0 0 0 0 0 0 0 0 0 0 0 0 0 0 0 0 0 0 0 0 0 0 0 0 0 0 0 0 0 0 0 0 0 0 0 0 0 0 0 0 0 0 0 0 0 0 0 0 0 "/>
</feComponentTransfer>
<feComposite operator="in" in2="shape" in="coloredNoise1" result="noise1Clipped" />
<feFlood flood-color="rgba(255, 255, 255, 0.3)" result="color1Flood" />
<feComposite operator="in" in2="noise1Clipped" in="color1Flood" result="color1" />
<feMerge result="effect1_noise_1298_42113">
<feMergeNode in="shape" />
<feMergeNode in="color1" />
</feMerge>
</filter>
<linearGradient id="paint0_linear_1298_42113" x1="2.71055" y1="0.182173" x2="22.2659" y2="24.6803" gradientUnits="userSpaceOnUse">
<stop stop-color="#56C654" stop-opacity="0.6"/>
<stop offset="1" stop-color="#444599" stop-opacity="0.3"/>
</linearGradient>
<linearGradient id="paint1_linear_1298_42113" x1="12.8276" y1="9.23817" x2="19.4395" y2="21.6652" gradientUnits="userSpaceOnUse">
<stop stop-color="#95EE95"/>
<stop offset="1" stop-color="#87A1E1"/>
</linearGradient>
<linearGradient id="paint2_linear_1298_42113" x1="12.8276" y1="9.23817" x2="19.4395" y2="21.6652" gradientUnits="userSpaceOnUse">
<stop stop-color="#95EE95"/>
<stop offset="1" stop-color="#87A1E1"/>
</linearGradient>
<linearGradient id="paint3_linear_1298_42113" x1="12.8276" y1="9.23817" x2="19.4395" y2="21.6652" gradientUnits="userSpaceOnUse">
<stop stop-color="#95EE95"/>
<stop offset="1" stop-color="#87A1E1"/>
</linearGradient>
<linearGradient id="paint4_linear_1298_42113" x1="12.8276" y1="9.23817" x2="19.4395" y2="21.6652" gradientUnits="userSpaceOnUse">
<stop stop-color="#95EE95"/>
<stop offset="1" stop-color="#87A1E1"/>
</linearGradient>
<linearGradient id="paint5_linear_1298_42113" x1="12.8276" y1="9.23817" x2="19.4395" y2="21.6652" gradientUnits="userSpaceOnUse">
<stop stop-color="#95EE95"/>
<stop offset="1" stop-color="#87A1E1"/>
</linearGradient>
<linearGradient id="paint6_linear_1298_42113" x1="12.8276" y1="9.23817" x2="19.4395" y2="21.6652" gradientUnits="userSpaceOnUse">
<stop stop-color="#95EE95"/>
<stop offset="1" stop-color="#87A1E1"/>
</linearGradient>
<linearGradient id="paint7_linear_1298_42113" x1="12.8276" y1="9.23817" x2="19.4395" y2="21.6652" gradientUnits="userSpaceOnUse">
<stop stop-color="#95EE95"/>
<stop offset="1" stop-color="#87A1E1"/>
</linearGradient>
<linearGradient id="paint8_linear_1298_42113" x1="12.8276" y1="9.23817" x2="19.4395" y2="21.6652" gradientUnits="userSpaceOnUse">
<stop stop-color="#95EE95"/>
<stop offset="1" stop-color="#87A1E1"/>
</linearGradient>
<linearGradient id="paint9_linear_1298_42113" x1="12.8276" y1="9.23817" x2="19.4395" y2="21.6652" gradientUnits="userSpaceOnUse">
<stop stop-color="#95EE95"/>
<stop offset="1" stop-color="#87A1E1"/>
</linearGradient>
<linearGradient id="paint10_linear_1298_42113" x1="12.8276" y1="9.23817" x2="19.4395" y2="21.6652" gradientUnits="userSpaceOnUse">
<stop stop-color="#95EE95"/>
<stop offset="1" stop-color="#87A1E1"/>
</linearGradient>
<linearGradient id="paint11_linear_1298_42113" x1="12.8276" y1="9.23817" x2="19.4395" y2="21.6652" gradientUnits="userSpaceOnUse">
<stop stop-color="#95EE95"/>
<stop offset="1" stop-color="#87A1E1"/>
</linearGradient>
<linearGradient id="paint12_linear_1298_42113" x1="12.8276" y1="9.23817" x2="19.4395" y2="21.6652" gradientUnits="userSpaceOnUse">
<stop stop-color="#95EE95"/>
<stop offset="1" stop-color="#87A1E1"/>
</linearGradient>
<linearGradient id="paint13_linear_1298_42113" x1="3.75274" y1="0.182173" x2="23.5969" y2="23.1298" gradientUnits="userSpaceOnUse">
<stop stop-color="#56C654" stop-opacity="0.6"/>
<stop offset="1" stop-color="#444599" stop-opacity="0.3"/>
</linearGradient>
<clipPath id="clip0_1298_42113">
<rect x="0.26001" width="32" height="32" rx="8" fill="white"/>
</clipPath>
</defs>
</svg>
