<svg width="20" height="20" viewBox="0 0 256 256" xmlns="http://www.w3.org/2000/svg">
  <g transform="translate(128,128)">
    <g fill="#000">
      <polygon transform="rotate(0)" points="-3.5,-130 3.5,-130 3.5,-110 -3.5,-110"/>
      <polygon transform="rotate(22.5)" points="-3.5,-130 3.5,-130 3.5,-110 -3.5,-110"/>
      <polygon transform="rotate(45)" points="-3.5,-130 3.5,-130 3.5,-110 -3.5,-110"/>
      <polygon transform="rotate(67.5)" points="-3.5,-130 3.5,-130 3.5,-110 -3.5,-110"/>
      <polygon transform="rotate(90)" points="-3.5,-130 3.5,-130 3.5,-110 -3.5,-110"/>
      <polygon transform="rotate(112.5)" points="-3.5,-130 3.5,-130 3.5,-110 -3.5,-110"/>
      <polygon transform="rotate(135)" points="-3.5,-130 3.5,-130 3.5,-110 -3.5,-110"/>
      <polygon transform="rotate(157.5)" points="-3.5,-130 3.5,-130 3.5,-110 -3.5,-110"/>
      <polygon transform="rotate(180)" points="-3.5,-130 3.5,-130 3.5,-110 -3.5,-110"/>
      <polygon transform="rotate(202.5)" points="-3.5,-130 3.5,-130 3.5,-110 -3.5,-110"/>
      <polygon transform="rotate(225)" points="-3.5,-130 3.5,-130 3.5,-110 -3.5,-110"/>
      <polygon transform="rotate(247.5)" points="-3.5,-130 3.5,-130 3.5,-110 -3.5,-110"/>
      <polygon transform="rotate(270)" points="-3.5,-130 3.5,-130 3.5,-110 -3.5,-110"/>
      <polygon transform="rotate(292.5)" points="-3.5,-130 3.5,-130 3.5,-110 -3.5,-110"/>
      <polygon transform="rotate(315)" points="-3.5,-130 3.5,-130 3.5,-110 -3.5,-110"/>
      <polygon transform="rotate(337.5)" points="-3.5,-130 3.5,-130 3.5,-110 -3.5,-110"/>
    </g>
    <circle r="108" fill="#000" stroke="none"/>
    <circle r="96" fill="#000" stroke="#FFF" stroke-width="5"/>
    <g fill="#FFF">
      <path d="M-35,55 L-35,-48 C-35,-48 -35,-65 -10,-65 L15,-65 C40,-65 45,-45 45,-38 C45,-25 38,-16 25,-12 L50,55 L30,55 L7,-8 L-15,-8 L-15,55 Z M-15,-22 L10,-22 C22,-22 25,-32 25,-38 C25,-44 22,-50 10,-50 L-15,-50 Z"/>
    </g>
  </g>
</svg>
